<svg xmlns="http://www.w3.org/2000/svg" width="243.315" height="88.381">
    <path fill-rule="evenodd" stroke="#000" stroke-linecap="round" stroke-width=".945" d="M44.143 69.336V19.678h-3.76v13.574h-.147c-2.343-8.106-9.423-14.404-18.75-14.404a20.27 20.27 0 0 0-19.274 13.65C.874 35.862.105 39.745.012 44.03a41 41 0 0 0-.01.892v.098c0 10.083 3.617 18.004 9.578 22.372a19.74 19.74 0 0 0 11.858 3.751 19.54 19.54 0 0 0 10.666-3.083 19.3 19.3 0 0 0 8.132-11.078h.147v12.11a17.1 17.1 0 0 1-1.658 7.665c-2.572 5.186-8.025 8.204-15.578 8.204a25 25 0 0 1-5.874-.658c-5.51-1.324-9.066-4.493-10.435-8.082l-.147-.391H2.785l.098.342c2.051 6.689 8.838 12.207 20.215 12.207a27.1 27.1 0 0 0 9.029-1.425c7.605-2.681 12.016-8.993 12.016-17.618Zm45.068-9.57h.098v10.693h3.808V36.133a19.2 19.2 0 0 0-1.673-8.164c-2.69-5.765-8.493-9.121-16.442-9.121-10.655 0-17.772 5.425-19.171 14.421a20 20 0 0 0-.067.471l-.098.586h3.662l.098-.537a13.34 13.34 0 0 1 3.389-7.054c2.753-2.908 6.947-4.469 12.187-4.469a17.6 17.6 0 0 1 6.19 1.03c4.314 1.62 7.068 5.093 7.872 9.992a19.4 19.4 0 0 1 .245 3.138v4.541l-17.481 1.221c-5.544.417-9.876 1.76-12.896 3.982a12.35 12.35 0 0 0-5.073 10.519v.098a13.75 13.75 0 0 0 9.238 13.172 20.9 20.9 0 0 0 7.559 1.33 21.86 21.86 0 0 0 11.512-3.198 16.84 16.84 0 0 0 7.043-8.325Zm43.799 27.783h3.808V57.031h.098a19.41 19.41 0 0 0 16.01 14.064 21 21 0 0 0 2.838.194c12.695 0 21.435-10.449 21.435-26.172v-.097c0-15.674-8.74-26.172-21.484-26.172a19.1 19.1 0 0 0-10.887 3.304 20.24 20.24 0 0 0-7.912 11.1h-.098V19.678h-3.808zm109.57-31.201.098-.44h-3.809l-.146.391a14.92 14.92 0 0 1-11.363 10.947 22.4 22.4 0 0 1-5.385.625c-10.825 0-18.157-7.349-18.847-20.649a40 40 0 0 1-.05-1.519h40.235v-1.758c0-15.234-8.789-25.097-21.924-25.097-12.499 0-21.18 9.041-22.048 23.753a42 42 0 0 0-.071 2.467v.049c0 16.075 8.685 25.945 22.187 26.168l.469.004a25 25 0 0 0 9.292-1.676 18.19 18.19 0 0 0 11.362-13.265ZM104.006 70.459h3.809V38.867c0-9.668 4.931-16.406 12.939-16.406a16 16 0 0 1 1.876.106c1.142.134 2.09.38 2.818.664a7 7 0 0 1 .579.255v-3.808a6 6 0 0 0-.213-.085c-.975-.367-2.665-.745-4.523-.745-5.646 0-9.818 2.776-12.2 7.612a19.5 19.5 0 0 0-1.179 3.032h-.097v-9.814h-3.809zm82.324 0h3.809V0h-3.809zm-49.56-25.391v-.048a29.8 29.8 0 0 1 1.672-10.157c2.82-7.778 8.986-12.597 16.785-12.597a16.94 16.94 0 0 1 15.987 11.198c1.161 2.775 1.878 5.987 2.073 9.544a37 37 0 0 1 .055 2.012v.097a31.3 31.3 0 0 1-1.471 9.818c-1.24 3.756-3.226 6.833-5.805 9.042a16.32 16.32 0 0 1-10.839 3.894 17.49 17.49 0 0 1-16.401-11.643c-1.202-2.915-1.914-6.284-2.037-9.997a35 35 0 0 1-.019-1.163ZM3.811 45.02v-.098c0-13.526 7.373-22.656 18.164-22.656A17.45 17.45 0 0 1 38.387 33.96c1.198 2.946 1.894 6.353 1.985 10.105a35 35 0 0 1 .011.857v.049c0 8.688-3.123 15.604-8.231 19.439a16.7 16.7 0 0 1-10.177 3.315A16.96 16.96 0 0 1 5.94 56.563c-1.163-2.769-1.879-5.977-2.075-9.533a37 37 0 0 1-.054-2.01Zm235.742-2.491h-36.475c.352-8.969 4.327-15.531 10.374-18.5a17.8 17.8 0 0 1 7.888-1.763c10.351 0 17.725 7.666 18.213 20.263ZM57.717 56.787v-.098a9.7 9.7 0 0 1 5.428-8.997c1.397-.763 3.055-1.356 4.962-1.773a31 31 0 0 1 4.258-.606l16.944-1.221v7.519a16.37 16.37 0 0 1-11.833 15.268 20.1 20.1 0 0 1-6.283.992c-7.861 0-13.476-4.541-13.476-11.084Z" font-size="12" style="stroke:#000;stroke-width:.25mm;fill:#000" vector-effect="non-scaling-stroke"/>
</svg>
