<?xml version="1.0" encoding="UTF-8" standalone="no"?>
<svg
   viewBox="0.09 152.26 869.56522 434.78261"
   version="1.1"
   id="svg1"
   sodipodi:docname="hooli.svg"
   width="2000"
   height="1000"
   inkscape:version="1.3.2 (091e20e, 2023-11-25)"
   xmlns:inkscape="http://www.inkscape.org/namespaces/inkscape"
   xmlns:sodipodi="http://sodipodi.sourceforge.net/DTD/sodipodi-0.dtd"
   xmlns="http://www.w3.org/2000/svg"
   xmlns:svg="http://www.w3.org/2000/svg">
  <defs
     id="defs1" />
  <sodipodi:namedview
     id="namedview1"
     pagecolor="#ffffff"
     bordercolor="#000000"
     borderopacity="0.25"
     inkscape:showpageshadow="2"
     inkscape:pageopacity="0.0"
     inkscape:pagecheckerboard="0"
     inkscape:deskcolor="#d1d1d1"
     inkscape:zoom="0.24020961"
     inkscape:cx="1084.4695"
     inkscape:cy="443.36278"
     inkscape:window-width="1512"
     inkscape:window-height="916"
     inkscape:window-x="0"
     inkscape:window-y="38"
     inkscape:window-maximized="1"
     inkscape:current-layer="svg1" />
  <path
     fill="#555555"
     d="m 606.50105,463.03175 h 57.9 v -195.3 l -57.9,27.3 z m 73.7,-110.5 v 110.5 h 57.9 v -110.5 z m -250.7,-8.9 c -18.2,-18.2 -50.4,-17.1 -50.4,-17.1 0,0 -32.2,-1.1 -50.4,17.1 -1.9,1.9 -3.7,3.9 -5.3,6 -38.2,-29.6 -72.5,-46.5 -102.1,-61.1 v -20.7 l -22.5,10.6 c -54.40006,-22.1 -89.00006,-18.2 -97.30007,0.1 0,0 -24.899994,32.8 61.90001,110.9 v -31 c -48.8,-54.6 -39,-76.1 -35.3,-79.2 13.5,-11.4 37.5,-8 64.40003,2.1 l -29.20003,13.7 v 63.3 c 13.1,14.7 30.50004,31.5 53.50006,50.4 l 4.5,3.6 v -29.8 c 0,-6.9 1.7,-18.2 10.8,-18.2 9.1,0 10.6,6.9 10.6,15 v 48.7 c 18,12.2 37.3,22.1 57.7,29.6 v -93.9 c 0,-18.7 -13.4,-37.4 -40.6,-37.4 -15.8,-0.1 -30.5,8.2 -38.5,21.9 v -54.3 c 41.9,20.9 83.9,46.5 99.9,58.3 -10.2,14.6 -9.3,28.1 -9.3,43.7 0,18.7 -1.4,34.3 16.8,52.5 18.2,18.2 50.4,17.1 50.4,17.1 0,0 32.3,1.1 50.4,-17.1 18.2,-18.2 16.7,-33.8 16.7,-52.5 0,-18.5 1.5,-34.2 -16.7,-52.3 m -39.7,71.9 c 0,3.6 -1.8,12.5 -10.7,12.5 -8.9,0 -10.7,-8.9 -10.7,-12.5 v -40.4 c 0,-8.7 7.3,-10.9 10.7,-10.9 3.4,0 10.7,2.1 10.7,10.9 z m 185.7,-71.9 c -18.2,-18.2 -50.4,-17.1 -50.4,-17.1 0,0 -32.3,-1.1 -50.4,17.1 -18.2,18.2 -16.8,33.9 -16.8,52.6 0,18.7 -1.4,34.3 16.8,52.5 18.2,18.2 50.4,17.1 50.4,17.1 0,0 32.3,1.1 50.4,-17.1 18.2,-18.2 16.8,-33.8 16.8,-52.5 -0.1,-18.8 1.3,-34.5 -16.8,-52.6 m -39.8,71.9 c 0,3.6 -1.8,12.5 -10.7,12.5 -8.9,0 -10.7,-8.9 -10.7,-12.5 v -40.4 c 0,-8.7 7.3,-10.9 10.7,-10.9 3.4,0 10.7,2.1 10.7,10.9 z m 173.5,-73 c 15.9,0 28.9,-12.9 28.9,-28.9 0,-16 -12.9,-24.5 -28.9,-24.5 -15.9,0 -28.9,8.6 -28.9,24.5 0,15.9 12.9,28.9 28.9,28.9 m -466.6,120.5 38.3,0.8 c -13.2,-4.6 -26,-10.2 -38.3,-16.8 z m -21.4,0 v -28.6 c -6.5,-4.2 -13,-8.7 -19.4,-13.6 -14.80005,-11.2 -27.50006,-21.7 -38.50006,-31.5 v 73.7 z m 59.7,0.8 c 36.5,12.5 69.9,14.2 94.7,7.2 -19.9,0.2 -45.8,-2.6 -75.3,-13.3 v 5.3 z"
     id="path1" />
</svg>
