<?xml version="1.0" encoding="UTF-8" standalone="no"?>
<svg
   fill="none"
   viewBox="0 0 1136.3636 454.54727"
   version="1.1"
   id="svg1"
   sodipodi:docname="monzo.svg"
   width="2500"
   height="1000.004"
   inkscape:version="1.3.2 (091e20e, 2023-11-25)"
   xmlns:inkscape="http://www.inkscape.org/namespaces/inkscape"
   xmlns:sodipodi="http://sodipodi.sourceforge.net/DTD/sodipodi-0.dtd"
   xmlns="http://www.w3.org/2000/svg"
   xmlns:svg="http://www.w3.org/2000/svg">
  <defs
     id="defs1" />
  <sodipodi:namedview
     id="namedview1"
     pagecolor="#ffffff"
     bordercolor="#000000"
     borderopacity="0.25"
     inkscape:showpageshadow="2"
     inkscape:pageopacity="0.0"
     inkscape:pagecheckerboard="0"
     inkscape:deskcolor="#d1d1d1"
     inkscape:zoom="0.31677973"
     inkscape:cx="1125.3877"
     inkscape:cy="490.87737"
     inkscape:window-width="1512"
     inkscape:window-height="916"
     inkscape:window-x="0"
     inkscape:window-y="38"
     inkscape:window-maximized="1"
     inkscape:current-layer="svg1" />
  <path
     fill="#ff4f40"
     d="M 94.114277,309.67699 V 148.677 h 42.900003 v 21.6 a 47.6,47.6 0 0 1 43.8,-24.6 49,49 0 0 1 44.7,25.8 c 16.8,-17.7 29.7,-25.8 49.8,-25.8 36.3,0 56.7,20.4 56.7,57.9 v 106.09999 h -46.2 V 222.477 c 0,-22.5 -4.8,-32.7 -22.5,-32.7 -18,0 -27.6,11 -27.6,32.7 v 87.19999 h -46.6 V 222.477 c 0,-22.5 -4.8,-32.7 -22.5,-32.7 -18,0 -27.6,11 -27.6,32.7 v 87.19999 H 94.014277 Z M 386.71428,169.677 a 85,85 0 1 1 93.2,137.99999 83.5,83.5 0 0 1 -33.2,6.3 79.6,79.6 0 0 1 -61,-25.8 84.2,84.2 0 0 1 -23.6,-59.39999 82.6,82.6 0 0 1 24.6,-59.1 z m 60.3,99.29999 a 39.8,39.8 0 1 0 -38.1,-39.59999 38.9,38.9 0 0 0 38,39.59999 z m 115.3,40.7 V 148.677 h 45 l -0.6,21.6 a 50.1,50.1 0 0 1 46.2,-24.6 c 33.3,0 54.9,21 54.9,57.9 v 106.09999 h -47.4 V 222.477 c 0,-22.5 -4.8,-32.7 -23.1,-32.7 -18.6,0 -28.5,11 -28.5,32.7 v 87.19999 z m 346.6,-140.09999 a 85,85 0 1 1 93.20002,137.99999 83.6,83.6 0 0 1 -33.20002,6.4 79.6,79.6 0 0 1 -61,-25.8 84.2,84.2 0 0 1 -23.6,-59.39999 82.6,82.6 0 0 1 24.6,-59.2 z m 60.3,99.29999 a 39.8,39.8 0 1 0 -38.1,-39.49999 38.9,38.9 0 0 0 38.1,39.49999 z m -226.9,40.8 v -33.5 l 66.3,-85.89999 h -66.3 v -41.6 h 119.8 v 38 l -58.5,81.39999 h 59.7 v 41.6 z"
     id="path1" />
</svg>
