<?xml version="1.0" encoding="UTF-8" standalone="no"?>
<svg
   width="328.80099"
   height="66.899002"
   version="1.1"
   id="svg1"
   sodipodi:docname="nustom.svg"
   viewBox="0 0 548.00166 111.49834"
   inkscape:version="1.3.2 (091e20e, 2023-11-25)"
   xmlns:inkscape="http://www.inkscape.org/namespaces/inkscape"
   xmlns:sodipodi="http://sodipodi.sourceforge.net/DTD/sodipodi-0.dtd"
   xmlns="http://www.w3.org/2000/svg"
   xmlns:svg="http://www.w3.org/2000/svg">
  <defs
     id="defs1" />
  <sodipodi:namedview
     id="namedview1"
     pagecolor="#ffffff"
     bordercolor="#000000"
     borderopacity="0.25"
     inkscape:showpageshadow="2"
     inkscape:pageopacity="0.0"
     inkscape:pagecheckerboard="0"
     inkscape:deskcolor="#d1d1d1"
     inkscape:zoom="2.2396903"
     inkscape:cx="184.17725"
     inkscape:cy="33.486773"
     inkscape:window-width="1312"
     inkscape:window-height="449"
     inkscape:window-x="0"
     inkscape:window-y="38"
     inkscape:window-maximized="0"
     inkscape:current-layer="svg1" />
  <path
     fill-rule="evenodd"
     stroke="#888"
     stroke-linecap="round"
     stroke-width=".945"
     d="m 372.02399,86.240292 h 20.02 V 54.892293 a 10.6,10.6 0 0 1 0.458,-3.211 c 0.855,-2.679 2.866,-4.292 5.725,-4.4 a 7.9999999,7.9999999 0 0 1 0.311,-0.006 7.5999999,7.5999999 0 0 1 2.822,0.482 c 2.434,0.967 3.672,3.385 3.672,7.233 v 31.249999 h 18.994 V 54.892293 a 11,11 0 0 1 0.424,-3.144 c 0.803,-2.667 2.719,-4.274 5.486,-4.456 a 7.9999999,7.9999999 0 0 1 0.535,-0.017 7.8999999,7.8999999 0 0 1 2.779,0.447 c 2.502,0.934 3.764,3.334 3.764,7.219 v 31.298999 h 20.02 V 49.716293 a 20.7,20.7 0 0 0 -2.045,-9.27 c -2.633,-5.299 -7.638,-8.718 -14.026,-9.22 a 21,21 0 0 0 -1.654,-0.064 18.7,18.7 0 0 0 -8.82,2.107 15.2,15.2 0 0 0 -7.733,9.758 h -0.39 c -1.136,-6.52 -5.387,-10.612 -11.507,-11.621 a 19,19 0 0 0 -3.093,-0.244 c -7.519,0 -13.379,4.443 -15.332,11.376 h -0.39 v -10.205 h -20.02 z m -107.715,-17.675999 v -0.049 a 13.03,13.03 0 0 0 -1.813,-7.041 c -1.916,-3.085 -5.386,-5.283 -10.582,-6.773 a 47.999999,47.999999 0 0 0 -4.45,-1.03 l -9.766,-1.806 a 34,34 0 0 1 -1.857,-0.402 c -3.383,-0.845 -4.393,-1.868 -4.393,-3.505 v -0.048 a 3.09,3.09 0 0 1 1.754,-2.75 c 1.051,-0.592 2.527,-0.913 4.301,-0.913 a 9.5999999,9.5999999 0 0 1 2.615,0.34 c 2.402,0.676 3.847,2.279 4.268,4.034 a 4.9999999,4.9999999 0 0 1 0.099,0.558 l 0.049,0.44 h 18.164 v -0.342 c 0,-9.606 -8.138,-17.761 -24.14,-18.104 a 48.999999,48.999999 0 0 0 -1.055,-0.011 c -15.674,0 -25.196,6.689 -25.196,17.871 v 0.048 a 14.24,14.24 0 0 0 7.308,12.817 c 2.433,1.463 5.457,2.543 9.05,3.199 l 9.765,1.807 a 28,28 0 0 1 1.88,0.412 c 3.028,0.789 4.175,1.846 4.175,3.494 v 0.049 a 2.79,2.79 0 0 1 -1.458,2.409 c -1.083,0.679999 -2.728,1.057999 -4.792,1.057999 a 12.6,12.6 0 0 1 -2.658,-0.261 c -1.003,-0.217 -1.855,-0.567999 -2.564,-1.039999 a 5.9799999,5.9799999 0 0 1 -2.493,-3.68 l -0.097,-0.39 h -19.336 l 0.048,0.439 a 18.18,18.18 0 0 0 10.84,14.898999 c 2.491,1.189 5.41,2.066 8.764,2.581 a 49.399999,49.399999 0 0 0 7.496,0.538 40.8,40.8 0 0 0 10.815,-1.352 c 9.443,-2.602 15.259,-8.826 15.259,-17.495999 z m -79.004,7.665999 h 0.391 v 10.01 h 20.019 V 32.333293 h -20.019 v 30.274 c 0,4.914 -2.751,8.523 -7.296,8.686 a 8.9999999,8.9999999 0 0 1 -0.321,0.005 c -3.789,0 -6.164,-1.884 -7.106,-5.13 a 13,13 0 0 1 -0.463,-3.61 v -30.225 h -20.019 v 34.62 a 28.7,28.7 0 0 0 1.148,8.416999 c 2.375,7.723 8.366,12.042 17.358,12.042 a 19.9,19.9 0 0 0 6.71,-1.072 c 4.112,-1.468 7.147,-4.423 9.045,-8.728 a 22,22 0 0 0 0.553,-1.382 z m -97.070004,10.01 H 108.25499 V 55.966293 c 0,-4.914 2.75,-8.523 7.295,-8.685 a 8.9999999,8.9999999 0 0 1 0.322,-0.006 c 3.788,0 6.164,1.884 7.105,5.13 a 13,13 0 0 1 0.463,3.61 v 30.224999 h 20.02 V 51.621293 a 28.7,28.7 0 0 0 -1.149,-8.418 c -2.374,-7.723 -8.366,-12.041 -17.357,-12.041 a 19.9,19.9 0 0 0 -6.71,1.071 c -4.112,1.468 -7.148,4.423 -9.046,8.729 a 22,22 0 0 0 -0.553,1.381 h -0.39 v -10.01 H 88.234986 Z m 215.723004,0.439 V 72.714293 a 45,45 0 0 1 -0.715,0.093 c -0.778,0.094 -1.538,0.151 -2.703,0.151 -3.903,0 -5.86,-1.591 -6.041,-5.489 a 13,13 0 0 1 -0.014,-0.614 v -20.068 h 9.473 v -14.454 h -9.473 v -11.816 h -20.02 v 11.816 h -7.128 v 14.454 h 7.128 v 23.144 a 26,26 0 0 0 0.776,6.726999 c 1.876,6.981 7.199,10.143 16.49,10.672 a 52.999999,52.999999 0 0 0 2.998,0.082 68.999999,68.999999 0 0 0 2.932,-0.06 47,47 0 0 0 5.065,-0.468 41,41 0 0 0 1.232,-0.205 z m 61.914,-27.343999 v -0.097 c 0,-15.374 -8.302,-25.2 -21.814,-27.537 a 38.5,38.5 0 0 0 -6.555,-0.539 33.4,33.4 0 0 0 -12.995,2.415 c -9.625,4.05 -15.326,13.026 -15.326,25.661 v 0.097 a 34.6,34.6 0 0 0 1.94,11.947 c 3.105,8.463999 9.828,13.821999 19.351,15.533999 a 39.7,39.7 0 0 0 7.03,0.596 35.1,35.1 0 0 0 12.516,-2.098 c 8.075,-3.072 13.401,-9.449 15.188,-18.670999 a 38.4,38.4 0 0 0 0.665,-7.308 z m -36.377,0 v -0.097 c 0,-8.35 3.076,-13.233 8.008,-13.233 4.645,0 7.743,4.42 8.034,12.039 a 31,31 0 0 1 0.022,1.194 v 0.097 c 0,6.012 -1.515,10.141 -4.166,12.042 a 6.4499999,6.4499999 0 0 1 -3.842,1.191 6.8399999,6.8399999 0 0 1 -6.362,-4.185 c -1.104,-2.202 -1.694,-5.242 -1.694,-9.048 z"
     font-size="12px"
     style="fill:#888888;stroke:#888888;stroke-width:0.25mm"
     vector-effect="non-scaling-stroke"
     id="path1" />
</svg>
