<?xml version="1.0" encoding="UTF-8" standalone="no"?>
<svg
   viewBox="0 0 856.66667 248.33333"
   version="1.1"
   id="svg1"
   sodipodi:docname="reddit.svg"
   width="514"
   height="149"
   inkscape:version="1.3.2 (091e20e, 2023-11-25)"
   xmlns:inkscape="http://www.inkscape.org/namespaces/inkscape"
   xmlns:sodipodi="http://sodipodi.sourceforge.net/DTD/sodipodi-0.dtd"
   xmlns="http://www.w3.org/2000/svg"
   xmlns:svg="http://www.w3.org/2000/svg">
  <defs
     id="defs1" />
  <sodipodi:namedview
     id="namedview1"
     pagecolor="#ffffff"
     bordercolor="#000000"
     borderopacity="0.25"
     inkscape:showpageshadow="2"
     inkscape:pageopacity="0.0"
     inkscape:pagecheckerboard="0"
     inkscape:deskcolor="#d1d1d1"
     inkscape:zoom="1.5838926"
     inkscape:cx="257.27754"
     inkscape:cy="74.5"
     inkscape:window-width="1312"
     inkscape:window-height="449"
     inkscape:window-x="0"
     inkscape:window-y="38"
     inkscape:window-maximized="0"
     inkscape:current-layer="svg1" />
  <path
     d="m 246.29514,88.010396 -12.01,28.560004 c -1.51,-0.76 -5.11,-1.61 -8.51,-1.61 -3.4,0 -6.81,0.85 -10.12,2.46 -6.53,3.31 -11.35,9.93 -11.35,19.48 v 52.3 h -29.89 V 87.440396 h 29.04 V 101.7204 h 0.57 c 6.81,-9.080004 17.21,-15.790004 30.74,-15.790004 4.92,0 9.65,0.95 11.54,2.08 z m -5.78,50.600004 c 0,-29.41 20.15,-52.680004 50.32,-52.680004 27.33001,0 46.91001,19.960004 46.91001,48.050004 0,4.92 -0.47,9.55 -1.51,14 h -68.48001 c 3.12,10.69 12.39,19.01 26.29,19.01 7.66,0 18.54001,-2.74 24.40001,-7.28 l 9.27,22.32 c -8.61,5.86 -21.75001,8.7 -33.29001,8.7 -32.25,0 -53.91,-20.81 -53.91,-52.11 z m 26.67,-9.36 h 43.03 c 0,-13.05 -8.89,-19.96 -19.77,-19.96 -12.3,0 -20.62,7.94 -23.27,19.96 z M 594.20515,41.720396 c 10.03,0 18.25,8.23 18.25,18.25 0,10.02 -8.23,18.25 -18.25,18.25 -10.02,0 -18.25,-8.23 -18.25,-18.25 0,-10.02 8.23,-18.25 18.25,-18.25 m 14.94,147.490004 h -29.89 V 87.440396 h 29.89 z m -188.47,-145.650004 -0.09,53.53 h -0.57 c -8.23,-7.85 -17.12,-11.07 -28.75,-11.07 -28.66,0 -47.67,23.080004 -47.67,52.300004 0,29.22 17.78,52.4 46.72,52.4 12.11,0 23.55,-4.16 30.93,-13.62 h 0.85 v 12.11 h 28.47 V 43.560396 Z m 1.42,121.390004 h -0.99 l -6.67,-6.93 c -4.34,4.33 -10.28,6.93 -17.22,6.93 -14.64,0 -24.88,-11.58 -24.88,-26.6 0,-15.02 10.24,-26.6 24.88,-26.6 14.64,0 24.88,11.58 24.88,26.6 z m 112.73,-121.390004 -0.09,53.53 h -0.57 c -8.23,-7.85 -17.12,-11.07 -28.75,-11.07 -28.66,0 -47.67,23.080004 -47.67,52.300004 0,29.22 17.78,52.4 46.72,52.4 12.11,0 23.55,-4.16 30.93,-13.62 h 0.85 v 12.11 h 28.47 V 43.560396 Z m 1.28,121.390004 h -0.99 l -6.67,-6.93 c -4.34,4.33 -10.28,6.93 -17.22,6.93 -14.64,0 -24.88,-11.58 -24.88,-26.6 0,-15.02 10.24,-26.6 24.88,-26.6 14.64,0 24.88,11.58 24.88,26.6 z m 131.01,-77.510004 h 21.85 V 112.8804 h -21.85 v 76.33 h -29.89 v -76.33 h -21.75 V 87.440396 h 21.75 v -27.66 h 29.89 z"
     style="fill:#666666"
     id="path1" />
</svg>
