<?xml version="1.0" encoding="UTF-8" standalone="no"?>
<svg
   fill="none"
   class="customer-logo"
   viewBox="0 0 166.25 60"
   version="1.1"
   id="svg1"
   sodipodi:docname="twilio.svg"
   width="133"
   height="48"
   inkscape:version="1.3.2 (091e20e, 2023-11-25)"
   xmlns:inkscape="http://www.inkscape.org/namespaces/inkscape"
   xmlns:sodipodi="http://sodipodi.sourceforge.net/DTD/sodipodi-0.dtd"
   xmlns="http://www.w3.org/2000/svg"
   xmlns:svg="http://www.w3.org/2000/svg">
  <defs
     id="defs1" />
  <sodipodi:namedview
     id="namedview1"
     pagecolor="#ffffff"
     bordercolor="#000000"
     borderopacity="0.25"
     inkscape:showpageshadow="2"
     inkscape:pageopacity="0.0"
     inkscape:pagecheckerboard="0"
     inkscape:deskcolor="#d1d1d1"
     inkscape:zoom="4.9166667"
     inkscape:cx="66.40678"
     inkscape:cy="24"
     inkscape:window-width="1312"
     inkscape:window-height="449"
     inkscape:window-x="0"
     inkscape:window-y="38"
     inkscape:window-maximized="0"
     inkscape:current-layer="svg1" />
  <g
     class="twilio"
     id="g1"
     transform="translate(15.254237,6.6101695)">
    <path
       fill="#f22f46"
       d="m 15,32.846 a 3.846,3.846 0 1 0 0,-7.692 3.846,3.846 0 0 0 0,7.692 m 0,-10 a 3.846,3.846 0 1 0 0,-7.692 3.846,3.846 0 0 0 0,7.692 m 10,10 a 3.846,3.846 0 1 0 0,-7.692 3.846,3.846 0 0 0 0,7.692 m 0,-10 a 3.846,3.846 0 1 0 0,-7.692 3.846,3.846 0 0 0 0,7.692 M 20,4 C 30.833,4 40,13.167 40,24 40,34.833 30.833,44 20,44 9.167,44 0,34.833 0,24 0,13.167 9.167,4 20,4 m 0,5.385 c -8.049,0 -14.615,6.339 -14.615,14.347 0,8.008 6.565,14.883 14.615,14.883 8.05,0 14.615,-6.876 14.615,-14.884 C 34.615,15.723 28.05,9.386 20,9.386 m 42.685,26.538 h 6.284 c 0.227,0 0.323,-0.097 0.388,-0.323 l 2.081,-7.683 2.02,7.683 c 0.064,0.226 0.16,0.323 0.387,0.323 h 6.282 c 0.258,0 0.42,-0.097 0.484,-0.323 l 4.39,-16.292 v 16.227 c 0,0.227 0.162,0.388 0.388,0.388 h 6.914 A 0.373,0.373 0 0 0 92.69,35.536 V 18.62 a 0.373,0.373 0 0 0 -0.387,-0.388 l -13.472,0.001 c -0.226,0 -0.356,0.097 -0.42,0.355 l -1.526,7.82 -1.537,-7.82 c -0.032,-0.226 -0.194,-0.355 -0.42,-0.355 H 68.09 c -0.226,0 -0.388,0.13 -0.42,0.355 l -1.496,7.82 -1.492,-7.82 C 64.618,18.33 64.488,18.233 64.262,18.233 L 54.054,18.232 v -5.763 c 0,-0.291 -0.2,-0.42 -0.523,-0.323 l -6.419,2.07 a 0.485,0.485 0 0 0 -0.355,0.485 l -0.008,2.716 c 0,0.678 -0.355,0.969 -1.034,0.969 h -1.659 a 0.373,0.373 0 0 0 -0.387,0.387 v 4.842 c 0,0.226 0.161,0.388 0.387,0.388 h 2.483 v 5.88 c 0,4.167 1.64,6.523 6.647,6.523 1.939,0 3.523,-0.25 4.363,-0.637 0.259,-0.13 0.351,-0.291 0.351,-0.55 v -4.577 c 0,-0.258 -0.254,-0.387 -0.577,-0.226 -0.42,0.194 -0.906,0.226 -1.39,0.226 -1.293,0 -1.705,-0.484 -1.705,-2.1 v -4.54 h 3.01 c 0.226,0 0.377,-0.15 0.377,-0.375 V 19.309 L 62.2,35.6 c 0.065,0.226 0.226,0.323 0.485,0.323 M 85,16.305 c 0,0.227 0.162,0.388 0.388,0.388 h 6.914 a 0.373,0.373 0 0 0 0.387,-0.388 V 12.468 A 0.373,0.373 0 0 0 92.302,12.08 H 85.388 A 0.373,0.373 0 0 0 85,12.468 Z m 9.229,19.23 c 0,0.227 0.161,0.388 0.388,0.388 h 6.921 a 0.373,0.373 0 0 0 0.387,-0.388 V 12.468 a 0.373,0.373 0 0 0 -0.387,-0.388 h -6.921 a 0.373,0.373 0 0 0 -0.388,0.388 z m 9.235,0 c 0,0.227 0.162,0.388 0.388,0.388 h 6.902 a 0.373,0.373 0 0 0 0.388,-0.388 l -0.004,-16.916 a 0.373,0.373 0 0 0 -0.387,-0.388 h -6.903 a 0.373,0.373 0 0 0 -0.387,0.387 z m -0.003,-19.23 c 0,0.227 0.161,0.388 0.387,0.388 h 6.906 a 0.373,0.373 0 0 0 0.388,-0.388 l -0.004,-3.837 a 0.373,0.373 0 0 0 -0.387,-0.388 h -6.903 a 0.373,0.373 0 0 0 -0.387,0.388 z m 8.89,10.927 c 0,5.267 4.043,9.23 9.956,9.23 5.913,0 9.92,-3.964 9.92,-9.23 v -0.42 c 0,-5.266 -4.008,-9.12 -9.92,-9.12 -5.913,0 -9.956,3.854 -9.956,9.12 z m 7.417,0.014 v -0.315 c 0,-2.423 1.117,-3.371 2.539,-3.371 1.421,0 2.544,0.948 2.544,3.37 v 0.316 c 0,2.391 -1.123,3.39 -2.544,3.39 -1.421,0 -2.539,-0.999 -2.539,-3.39"
       class="path-fill logo-fill"
       id="path1" />
  </g>
</svg>
