<svg width="1440" height="929" viewBox="0 0 1440 929" fill="none" xmlns="http://www.w3.org/2000/svg">
<path opacity="0.2" d="M0 591H47C69.0914 591 87 573.091 87 551V401C87 378.909 104.909 361 127 361H379C401.091 361 419 343.091 419 321V128C419 105.909 436.909 88 459 88H956C978.091 88 996 105.909 996 128V321C996 343.091 1013.91 361 1036 361H1440" stroke="#190017" stroke-dasharray="2 2"/>
<path opacity="0.2" d="M0 87H87C109.091 87 127 104.909 127 127V641C127 663.091 144.909 681 167 681H379C401.091 681 419 698.909 419 721V888C419 910.091 436.909 928 459 928H956C978.091 928 996 910.091 996 888V769C996 746.909 1013.91 729 1036 729H1240C1262.09 729 1280 711.091 1280 689V0" stroke="#190017" stroke-dasharray="2 2"/>
<path opacity="0.2" d="M1440 185L568.443 177.113C561.553 177.05 556 171.447 556 164.557V164.557C556 157.622 561.622 152 568.557 152H603C625.091 152 643 169.909 643 192V217C643 239.091 625.091 257 603 257H327C304.909 257 287 274.909 287 297V415C287 437.091 269.091 455 247 455H208C185.909 455 168 472.909 168 495V708C168 730.091 150.091 748 128 748H0" stroke="#190017" stroke-dasharray="2 2"/>
</svg>
